<?xml version="1.0" standalone="no"?>
<!DOCTYPE svg PUBLIC "-//W3C//DTD SVG 20010904//EN"
 "http://www.w3.org/TR/2001/REC-SVG-20010904/DTD/svg10.dtd">
<svg version="1.0" xmlns="http://www.w3.org/2000/svg"
 width="576.000000pt" height="576.000000pt" viewBox="0 0 576.000000 576.000000"
 preserveAspectRatio="xMidYMid meet">
<metadata>
Created by potrace 1.11, written by Peter Selinger 2001-2013
</metadata>
<g transform="translate(0.000000,576.000000) scale(0.100000,-0.100000)"
fill="#000000" stroke="none">
<path d="M1909 5436 c-2 -2 -29 -7 -59 -11 -71 -9 -220 -59 -284 -96 -28 -15
-79 -51 -114 -79 -34 -27 -64 -50 -65 -50 -7 0 11 116 22 143 10 26 10 27 -11
16 -11 -6 -65 -55 -118 -108 -131 -130 -218 -280 -265 -453 -10 -38 -23 -68
-28 -68 -6 0 -7 3 -4 6 3 4 2 14 -2 23 -12 21 -22 76 -24 123 -1 21 -6 37 -12
35 -9 -3 -85 -139 -85 -152 0 -3 0 -6 -1 -7 -1 -3 -4 -19 -14 -63 -29 -138
-26 -302 9 -460 20 -93 83 -214 146 -285 l40 -45 -6 40 c-10 64 -11 186 -2
235 5 25 10 56 13 68 11 62 56 182 67 182 5 0 7 -3 6 -7 -4 -20 68 -169 113
-237 44 -64 174 -196 195 -196 6 0 17 -6 23 -14 10 -12 84 -56 95 -56 2 0 1
19 -2 43 -13 104 -5 251 18 351 6 30 8 77 3 125 -9 93 -9 83 0 156 10 79 65
190 124 248 124 124 312 146 457 53 88 -56 145 -140 172 -255 12 -53 13 -230
1 -276 -3 -11 -8 -33 -12 -50 -4 -16 -25 -67 -47 -113 -40 -81 -40 -82 -22
-109 26 -41 408 -413 423 -413 3 0 22 23 41 50 19 28 41 57 48 65 6 7 12 16
12 18 0 3 16 34 36 69 34 59 121 262 128 297 1 9 8 34 14 56 20 75 24 110 28
240 3 139 -1 167 -47 314 -95 307 -278 494 -584 599 -33 11 -85 26 -115 32
-53 12 -302 24 -311 16z"/>
<path d="M1688 4452 c-17 -29 -47 -127 -55 -177 -2 -16 -8 -47 -13 -67 -10
-49 -5 -244 8 -285 6 -18 8 -33 6 -33 -12 0 39 -55 64 -70 35 -22 132 -111
132 -122 0 -5 9 -18 20 -30 20 -22 43 -66 55 -108 6 -21 2 -18 -24 14 -35 44
-121 126 -132 126 -4 0 -14 6 -21 13 -7 7 -38 28 -68 45 -30 18 -62 37 -70 42
-8 5 -55 33 -105 62 -49 29 -92 55 -95 58 -3 3 -25 18 -50 34 -63 40 -153 135
-189 197 -37 65 -44 54 -45 -65 -1 -103 5 -141 37 -209 l25 -54 -37 9 c-20 5
-44 10 -53 13 -10 2 -59 7 -110 10 -109 8 -93 8 -147 6 l-45 -1 51 -37 c74
-56 110 -92 147 -148 80 -121 58 -152 -217 -299 -33 -17 -66 -35 -76 -41 -9
-5 -39 -23 -66 -39 -66 -39 -176 -122 -169 -128 2 -3 24 -3 47 1 53 7 225 6
252 -2 101 -29 154 -107 150 -222 -2 -53 -16 -147 -23 -160 -4 -5 -8 -18 -9
-27 -2 -12 30 7 95 56 137 105 369 236 416 236 8 0 17 4 20 9 3 5 23 12 43 16
46 8 29 21 -43 31 -27 3 -58 8 -69 11 -11 3 -33 7 -49 10 l-29 6 43 38 c24 21
51 41 61 44 11 4 19 10 19 14 0 9 128 70 159 76 12 2 25 6 30 10 10 5 79 21
136 31 51 8 188 10 220 3 17 -4 23 -8 15 -9 -59 -8 -85 -12 -162 -31 -90 -21
-159 -47 -238 -88 l-45 -24 75 -19 c41 -11 97 -24 124 -30 l48 -11 -23 -18
c-13 -10 -30 -19 -36 -19 -7 0 -13 -4 -13 -9 0 -5 -9 -13 -20 -16 -36 -11
-157 -141 -194 -208 -20 -35 -36 -67 -36 -71 0 -3 13 0 29 8 97 50 266 50 363
0 45 -23 95 -72 117 -114 11 -22 19 -40 17 -40 -2 0 0 -15 4 -34 7 -30 2 -78
-14 -144 -8 -34 -50 -103 -80 -131 -28 -26 -34 -43 -13 -36 6 2 40 7 75 9 34
3 67 8 72 11 29 18 16 -41 -16 -73 -8 -7 -19 -21 -26 -31 -7 -9 -27 -28 -45
-41 -18 -13 -30 -27 -27 -32 3 -4 8 -6 12 -4 4 2 28 7 54 10 121 16 312 131
357 213 18 35 14 38 -50 38 -48 0 -64 4 -75 20 -17 24 -18 91 0 173 l13 62
-21 -15 c-33 -24 -44 -28 -71 -21 -36 9 -47 61 -29 128 8 29 16 60 19 68 2 8
8 28 14 43 13 33 14 68 4 65 -5 -1 -24 2 -43 5 -63 13 -84 16 -123 16 -55 1
-38 16 35 31 35 7 70 15 78 16 119 26 403 20 437 -8 32 -26 34 -46 12 -110
-11 -35 -25 -67 -30 -72 -21 -22 -7 -33 44 -35 182 -8 264 -34 307 -97 30 -45
32 -54 32 -131 -1 -35 4 -63 9 -63 5 0 9 5 9 10 0 6 6 10 14 10 12 0 63 48
117 110 28 34 94 173 109 235 7 28 14 87 15 132 l2 82 -56 -59 c-31 -33 -68
-64 -83 -69 -26 -10 -28 -8 -34 24 -7 37 -33 72 -76 98 -25 16 -27 21 -26 84
2 109 -48 245 -127 348 -16 22 -37 49 -45 60 -8 10 -75 78 -149 150 -222 215
-318 313 -348 352 -15 21 -31 40 -34 43 -14 11 -68 118 -87 175 -12 33 -24 87
-27 120 -7 57 -8 58 -21 35 -12 -22 -29 -72 -41 -120 -9 -36 -9 -187 0 -223 7
-28 29 -56 80 -105 218 -208 357 -348 391 -394 39 -53 112 -178 103 -178 -2 0
-25 26 -50 58 -54 69 -133 150 -286 292 -188 174 -317 306 -365 373 -68 96
-120 239 -118 329 1 29 -13 29 -30 0z m648 -1103 c21 -11 53 -35 72 -52 32
-30 86 -104 87 -119 0 -3 3 -10 8 -14 13 -14 7 -32 -10 -29 -10 2 -25 4 -34 4
-8 1 -36 15 -61 31 -46 30 -95 107 -111 173 -9 33 0 34 49 6z"/>
<path d="M4387 3659 c-108 -30 -171 -68 -349 -211 -148 -119 -197 -142 -212
-101 -7 17 31 104 66 156 11 15 17 27 13 27 -11 0 -85 -53 -85 -61 0 -4 -9
-10 -19 -14 -28 -9 -199 -179 -251 -250 -25 -33 -47 -62 -50 -65 -8 -7 -70
-109 -70 -115 0 -2 -13 -26 -28 -52 -29 -51 -75 -163 -69 -170 2 -2 24 18 48
44 48 52 105 103 158 143 19 14 39 30 45 35 14 14 144 95 151 95 3 0 22 10 43
23 61 39 256 118 292 119 3 0 12 4 21 9 9 4 29 11 45 14 16 2 40 7 54 10 19 4
127 16 160 17 25 1 62 -3 59 -6 -2 -3 -25 -7 -49 -10 -80 -10 -206 -43 -272
-70 -21 -9 -41 -17 -45 -18 -42 -7 -375 -211 -421 -257 -9 -9 -37 -33 -62 -53
-67 -54 -197 -182 -276 -273 -82 -94 -174 -211 -174 -222 0 -5 15 -14 33 -22
33 -15 107 -62 142 -92 11 -10 56 -47 99 -83 l80 -66 70 142 c39 79 73 145 76
148 3 3 16 25 29 50 39 72 128 208 203 306 88 118 175 206 250 254 176 114
420 126 611 28 l38 -19 55 31 c56 31 144 69 178 76 10 2 33 8 50 13 17 6 42
12 56 15 14 2 36 7 50 10 62 15 92 18 200 21 63 2 134 0 158 -4 64 -12 63 -11
-70 97 -115 93 -220 151 -363 200 -193 66 -375 63 -614 -12 -99 -31 -119 -32
-136 -9 -24 32 11 77 113 146 29 20 49 38 45 40 -5 3 -39 -4 -76 -14z"/>
<path d="M770 3052 c0 -4 -32 -41 -71 -82 -39 -41 -83 -91 -98 -110 -14 -19
-28 -37 -31 -40 -3 -3 -24 -30 -48 -60 -23 -30 -45 -59 -50 -65 -61 -78 -223
-385 -238 -450 l-7 -30 24 21 c39 33 128 94 139 94 6 0 10 4 10 8 0 5 11 14
25 20 31 14 31 8 4 -60 -12 -29 -22 -57 -23 -63 -2 -5 -9 -30 -16 -55 -7 -25
-15 -49 -16 -55 -2 -5 -12 -57 -23 -115 -16 -85 -19 -137 -16 -275 2 -93 6
-185 9 -203 11 -63 14 -78 34 -162 57 -238 154 -435 281 -570 l61 -65 -5 35
c-11 66 -13 170 -5 170 5 0 20 -16 33 -36 52 -75 182 -200 275 -263 148 -99
350 -185 492 -208 14 -2 43 -6 65 -10 90 -14 384 -7 443 11 9 3 28 7 42 10
124 21 279 81 418 163 101 59 182 123 282 223 88 87 200 221 200 239 0 5 4 11
9 13 12 4 110 158 165 261 50 91 52 112 15 137 -12 8 -31 24 -43 35 -24 23
-297 250 -340 283 l-29 22 -31 -53 c-98 -170 -262 -343 -421 -449 -210 -138
-406 -158 -611 -61 -87 41 -198 156 -248 258 -57 115 -64 135 -80 235 -50 309
91 673 371 958 35 34 34 35 -27 49 -104 25 -231 -14 -349 -107 l-54 -43 6 54
c9 91 26 152 65 232 21 42 36 77 33 77 -3 0 -50 -23 -105 -50 -102 -51 -235
-131 -290 -176 -17 -13 -36 -28 -41 -32 -30 -22 -108 -86 -132 -110 -16 -15
-38 -35 -49 -44 -22 -19 -22 -24 2 167 3 28 8 64 10 80 2 17 6 46 9 65 20 127
18 173 -10 184 -8 3 -15 2 -15 -2z"/>
<path d="M2229 2863 c0 -5 -3 -30 -5 -57 -6 -57 16 -134 49 -172 12 -14 58
-56 102 -92 44 -36 88 -73 97 -83 34 -35 57 -89 63 -146 14 -142 23 -175 70
-248 38 -60 80 -99 275 -260 47 -38 94 -78 105 -87 11 -9 65 -54 120 -99 122
-101 188 -168 210 -215 26 -55 41 -148 39 -237 -6 -197 -6 -303 0 -322 3 -11
9 -36 14 -55 19 -74 75 -163 146 -232 38 -37 132 -94 170 -104 l30 -7 -22 30
c-31 44 -58 110 -67 168 -5 28 -8 53 -7 56 0 3 3 24 6 46 8 71 27 126 57 170
35 50 44 53 47 16 4 -49 53 -197 85 -253 99 -179 245 -292 437 -340 58 -14
104 -18 200 -16 69 2 134 6 145 9 11 3 49 14 85 23 36 9 82 25 103 36 20 10
37 16 37 13 0 -4 13 3 29 14 16 12 32 21 36 21 13 0 133 96 160 128 29 35 29
37 -10 22 -29 -11 -138 -14 -198 -5 -58 8 -148 41 -210 76 -31 18 -55 35 -52
37 2 2 50 6 107 7 113 4 139 8 213 32 347 111 540 443 444 763 -25 84 -104
207 -172 270 -82 75 -246 158 -347 175 -82 15 -196 22 -205 13 -3 -2 17 -15
45 -27 129 -58 219 -196 207 -320 -6 -72 -33 -135 -78 -182 -59 -61 -176 -120
-270 -134 -50 -8 -188 -9 -196 -1 -3 2 13 29 36 58 62 83 82 139 86 251 5 135
-48 273 -140 362 -61 60 -80 69 -65 31 14 -39 4 -131 -22 -182 -48 -97 -163
-152 -274 -130 -30 6 -108 44 -130 64 -10 10 -66 56 -124 102 -58 47 -114 93
-125 103 -11 10 -33 28 -48 40 -16 12 -36 29 -45 38 -10 8 -53 44 -97 80 -44
35 -82 66 -85 69 -14 15 -109 88 -133 104 -50 31 -106 45 -205 52 -133 8 -172
28 -186 95 -34 156 -39 170 -87 207 -28 23 -49 29 -109 36 -25 3 -70 8 -100
11 -104 12 -175 61 -206 143 -15 37 -33 55 -35 35z"/>
</g>
</svg>
